<svg width="50" height="32" viewBox="0 0 50 32" fill="none" xmlns="http://www.w3.org/2000/svg">
<rect opacity="0.85" width="50" height="32" fill="#007AFF"/>
<path d="M16.9993 12.1364V12.8939C16.9993 13.905 16.5674 15.0018 15.2731 15.6476C14.9082 15.8297 14.74 16.2925 14.9722 16.6277C15.2542 17.0349 15.7729 17.2301 16.2177 17.0121C17.8704 16.2021 18.5312 14.5977 18.5312 12.8939V12.1364H16.9993ZM17.3909 12.1364V12.8939C17.3909 14.5267 18.0216 16.0689 19.619 16.8459C20.0609 17.0609 20.575 16.8672 20.8577 16.4654C21.0895 16.1361 20.9259 15.678 20.566 15.4976C19.3203 14.8733 18.8997 13.8371 18.8997 12.8939V12.1364H17.3909ZM15.6825 11.6494C15.3029 11.6494 14.9953 11.957 14.9953 12.3366C14.9953 12.7161 15.3029 13.0238 15.6825 13.0238H20.1705C20.5501 13.0238 20.8577 12.7161 20.8577 12.3366C20.8577 11.957 20.5501 11.6494 20.1705 11.6494H15.6825ZM22.6315 11C22.1162 11 21.6985 11.4177 21.6985 11.9329V17.3398C21.6985 17.855 22.1162 18.2727 22.6315 18.2727C23.1467 18.2727 23.5644 17.855 23.5644 17.3398V11.9329C23.5644 11.4177 23.1467 11 22.6315 11ZM16.2276 19.6147V20C16.2276 20.5523 16.6754 21 17.2276 21H23.1136C23.4961 21 23.8063 20.6899 23.8063 20.3074C23.8063 19.9248 23.4961 19.6147 23.1136 19.6147H16.2276ZM17.1548 17.6342C16.6428 17.6342 16.2276 18.0493 16.2276 18.5614V20.329H18.082V18.5614C18.082 18.0493 17.6669 17.6342 17.1548 17.6342Z" fill="white"/>
<path d="M33.2253 11C32.7132 11 32.2981 11.4151 32.2981 11.9272V17.3997C32.2981 17.9117 32.7132 18.3268 33.2253 18.3268C33.7373 18.3268 34.1524 17.9117 34.1524 17.3997V11.9272C34.1524 11.4151 33.7373 11 33.2253 11ZM33.6457 13.6299V15.0476H34.7911C35.1826 15.0476 35.5 14.7302 35.5 14.3387C35.5 13.9472 35.1826 13.6299 34.7911 13.6299H33.6457ZM25.9404 15.3506V16.2468C25.9404 16.5229 26.1642 16.7468 26.4404 16.7468H26.8733C28.9071 16.7468 30.0864 16.7106 31.1162 16.5496C31.5009 16.4894 31.7539 16.1266 31.7049 15.7403C31.6583 15.3725 31.3086 15.1241 30.9418 15.1774C29.9467 15.322 28.8404 15.3506 26.8733 15.3506H25.9404ZM26.4404 11.7576C26.1642 11.7576 25.9404 11.9814 25.9404 12.2576V16.0866H27.7947V13.1429H30.1197C30.5022 13.1429 30.8123 12.8328 30.8123 12.4502C30.8123 12.0677 30.5022 11.7576 30.1197 11.7576H26.4404ZM27.0576 19.6147V20.5C27.0576 20.7761 27.2814 21 27.5576 21H33.7938C34.1763 21 34.4864 20.6899 34.4864 20.3074C34.4864 19.9248 34.1763 19.6147 33.7938 19.6147H27.0576ZM27.9905 17.5368C27.4753 17.5368 27.0576 17.9545 27.0576 18.4697V20.3398H28.9234V18.4697C28.9234 17.9545 28.5057 17.5368 27.9905 17.5368Z" fill="white"/>
</svg>
