<svg width="50" height="32" viewBox="0 0 50 32" fill="none" xmlns="http://www.w3.org/2000/svg">
<rect width="50" height="32" fill="white" fill-opacity="0.85"/>
<path d="M17.4345 21C19.4011 21 21.0491 20.0847 21.0491 18.4889C21.0491 17.339 20.1628 16.6232 18.9994 16.3416V16.2829C20.0935 15.9309 20.7029 15.2386 20.7029 14.3116C20.7029 12.8214 19.3595 12 17.3791 12C16.4607 12 15.6658 12.2442 14.9437 12.6519C14.6014 12.8451 14.5638 13.3082 14.8379 13.59C15.133 13.8933 15.603 13.9118 15.973 13.7062C16.3827 13.4786 16.8089 13.3494 17.296 13.3494C18.1685 13.3494 18.6671 13.7601 18.6671 14.4407C18.6671 15.1226 18.1947 15.6225 16.7961 15.7323C16.4537 15.7592 16.1743 16.0333 16.1743 16.3768C16.1743 16.7203 16.4537 16.9958 16.7966 17.0144C18.5174 17.1079 18.9994 17.6126 18.9994 18.3833C18.9994 19.1578 18.2932 19.6037 17.2406 19.6037C16.5954 19.6037 16.044 19.4107 15.563 19.1236C15.2134 18.9149 14.7551 18.9414 14.4847 19.2458C14.2133 19.5512 14.2263 20.0235 14.5677 20.2481C15.2599 20.7036 16.1926 21 17.4345 21Z" fill="#007AFF"/>
<path d="M25.4155 21C27.1604 21 28.6423 19.8853 28.6423 18.1017C28.6423 16.236 27.4097 15.3794 25.6924 15.3794C25 15.3794 24.0444 15.7549 23.5043 16.4003L23.5874 17.5737C24.0998 16.8579 24.7507 16.5997 25.3185 16.5997C26.191 16.5997 26.7727 17.0691 26.7727 18.1017C26.7727 19.1578 26.1495 19.6975 25.3878 19.6975C24.3768 19.6975 23.6013 18.8644 23.6013 16.6115C23.6013 14.1943 24.5845 13.3846 25.8309 13.3846C26.1472 13.3846 26.4799 13.4679 26.7733 13.5986C27.1554 13.7688 27.637 13.7815 27.9429 13.4961C28.2362 13.2224 28.231 12.7501 27.8838 12.5492C27.3175 12.2216 26.5967 12 25.7063 12C23.629 12 21.7317 13.3846 21.7317 16.6115C21.7317 19.6741 23.4766 21 25.4155 21Z" fill="#007AFF"/>
<path d="M32.5378 21C34.6151 21 36 19.4628 36 16.4589C36 13.4668 34.6151 12 32.5378 12C30.4466 12 29.0617 13.4668 29.0617 16.4589C29.0617 19.4628 30.4466 21 32.5378 21ZM32.5378 19.6506C31.6515 19.6506 30.9867 18.8996 30.9867 16.4589C30.9867 14.03 31.6515 13.3259 32.5378 13.3259C33.4241 13.3259 34.075 14.03 34.075 16.4589C34.075 18.8996 33.4241 19.6506 32.5378 19.6506Z" fill="#007AFF"/>
<path fill-rule="evenodd" clip-rule="evenodd" d="M37.5 12C38.3284 12 39 11.3284 39 10.5C39 9.67157 38.3284 9 37.5 9C36.6716 9 36 9.67157 36 10.5C36 11.3284 36.6716 12 37.5 12ZM37.5 10C37.7761 10 38 10.2239 38 10.5C38 10.7761 37.7761 11 37.5 11C37.2239 11 37 10.7761 37 10.5C37 10.2239 37.2239 10 37.5 10Z" fill="#007AFF"/>
</svg>
