<svg width="30" height="30" viewBox="0 0 30 30" fill="none" xmlns="http://www.w3.org/2000/svg">
<path d="M29.2356 29.2295C29.2232 29.2417 29.2056 29.25 29.1832 29.25H0.816796C0.794402 29.25 0.776818 29.2417 0.764371 29.2295C0.752171 29.2176 0.75 29.2075 0.75 29.2V9.32567C0.75 9.32176 0.75102 9.31507 0.755881 9.30655C0.760694 9.29811 0.768044 9.29017 0.777504 9.28424C0.777753 9.28408 0.778003 9.28393 0.778255 9.28378L14.9604 0.760869C14.9605 0.760807 14.9606 0.760746 14.9607 0.760685C14.9716 0.754247 14.9857 0.75 15.0018 0.75C15.0179 0.75 15.032 0.754246 15.0429 0.760684C15.043 0.760746 15.0431 0.760807 15.0432 0.760869L29.2252 9.28585L29.226 9.28636C29.2431 9.29657 29.25 9.31183 29.25 9.32567V29.2C29.25 29.2075 29.2478 29.2176 29.2356 29.2295Z" fill="white" stroke="#313234" stroke-width="1.5"/>
<path fill-rule="evenodd" clip-rule="evenodd" d="M9.44024 10.1338H4.64014V15.1219H9.44024V10.1338ZM4.64014 17.1456H9.44024V22.1338H4.64014V17.1456ZM11.8403 17.1456H16.6404V22.1338H11.8403V17.1456ZM11.8401 10.1338H16.6402V15.1219H11.8401V10.1338Z" fill="url(#paint0_linear_1239_47075)"/>
<defs>
<linearGradient id="paint0_linear_1239_47075" x1="14.6404" y1="10.1338" x2="7.31152" y2="21.0123" gradientUnits="userSpaceOnUse">
<stop stop-color="#04D4C8" stop-opacity="0.6"/>
<stop offset="0.739583" stop-color="#007AFF" stop-opacity="0.7"/>
</linearGradient>
</defs>
</svg>
