<svg width="30" height="30" viewBox="0 0 30 30" fill="none" xmlns="http://www.w3.org/2000/svg">
<path d="M29.25 14.9956C29.25 22.867 22.867 29.25 14.9956 29.25C7.12473 29.25 0.75 22.8676 0.75 14.9956C0.75 7.12445 7.13272 0.75 14.9956 0.75C22.8587 0.75 29.25 7.13359 29.25 14.9956Z" fill="white" stroke="black" stroke-width="1.5"/>
<path fill-rule="evenodd" clip-rule="evenodd" d="M27 15.5C27 15.4988 27 15.4976 27 15.4965C27 8.87504 21.6179 3.5 14.9965 3.5C8.37504 3.5 3 8.86796 3 15.4965C3 15.4976 3 15.4988 3 15.5H27Z" fill="url(#paint0_linear_1205_45208)"/>
<path d="M29.25 14.9956C29.25 22.867 22.867 29.25 14.9956 29.25C7.12473 29.25 0.75 22.8676 0.75 14.9956C0.75 7.12445 7.13272 0.75 14.9956 0.75C22.8587 0.75 29.25 7.13359 29.25 14.9956Z" stroke="#313234" stroke-width="1.5"/>
<path d="M16.5 15C16.5 15.8237 15.8324 16.5 15 16.5C14.1676 16.5 13.5 15.8324 13.5 15C13.5 14.1676 14.1676 13.5 15 13.5C15.8324 13.5 16.5 14.1676 16.5 15Z" fill="white" stroke="#353535" stroke-width="1.5" stroke-miterlimit="10"/>
<path d="M16.5 13.5L21.5 9" stroke="#353535" stroke-width="2" stroke-linecap="round"/>
<rect x="8" y="20" width="2" height="4" rx="1" fill="#313234"/>
<rect x="14" y="20" width="2" height="4" rx="1" fill="#313234"/>
<rect x="20" y="20" width="2" height="4" rx="1" fill="#313234"/>
<defs>
<linearGradient id="paint0_linear_1205_45208" x1="23" y1="3.5" x2="18.2152" y2="17.7042" gradientUnits="userSpaceOnUse">
<stop stop-color="#04D4C8" stop-opacity="0.6"/>
<stop offset="0.739583" stop-color="#007AFF" stop-opacity="0.7"/>
</linearGradient>
</defs>
</svg>
