<svg width="20" height="20" viewBox="0 0 20 20" fill="none" xmlns="http://www.w3.org/2000/svg">
<path d="M1.50391 15.5H18.5039L17.0142 11.8427C16.9584 11.761 16.9266 11.6629 16.9266 11.5649V8.6002C16.9266 4.68379 13.8224 1.5 10.0039 1.5C6.18541 1.5 3.08123 4.68379 3.08123 8.6002V11.5649C3.08123 11.6656 3.04936 11.7637 2.9936 11.8427L1.50391 15.5Z" stroke="black" stroke-width="1.5" stroke-linejoin="round"/>
<path d="M13.25 16.3516C13.25 15.9373 12.9142 15.6016 12.5 15.6016C12.0858 15.6016 11.75 15.9373 11.75 16.3516H13.25ZM8.25 16.3516C8.25 15.9373 7.91421 15.6016 7.5 15.6016C7.08579 15.6016 6.75 15.9373 6.75 16.3516H8.25ZM11.75 16.3516C11.75 17.3181 10.9665 18.1016 10 18.1016V19.6016C11.7949 19.6016 13.25 18.1465 13.25 16.3516H11.75ZM10 18.1016C9.0335 18.1016 8.25 17.3181 8.25 16.3516H6.75C6.75 18.1465 8.20507 19.6016 10 19.6016V18.1016Z" fill="black"/>
</svg>
